<svg width="420" height="320" viewBox="0 0 420 320" fill="none" xmlns="http://www.w3.org/2000/svg">
  <rect width="420" height="320" rx="36" fill="url(#bg)"/>
  <circle cx="87" cy="82" r="52" fill="url(#orb1)" fill-opacity="0.7"/>
  <circle cx="337" cy="74" r="38" fill="url(#orb2)" fill-opacity="0.9"/>
  <rect x="96" y="54" width="228" height="212" rx="28" fill="white" fill-opacity="0.16" stroke="white" stroke-opacity="0.24"/>
  <rect x="118" y="78" width="184" height="18" rx="9" fill="white" fill-opacity="0.18"/>
  <rect x="118" y="116" width="86" height="92" rx="20" fill="#E8FFF7" fill-opacity="0.92"/>
  <rect x="214" y="116" width="88" height="42" rx="16" fill="#EAF4FF" fill-opacity="0.95"/>
  <rect x="214" y="166" width="88" height="42" rx="16" fill="#FFF2E8" fill-opacity="0.95"/>
  <rect x="118" y="220" width="184" height="22" rx="11" fill="white" fill-opacity="0.2"/>
  <text x="145" y="138" fill="#17594D" font-family="Arial, sans-serif" font-size="15" font-weight="700">76</text>
  <text x="138" y="160" fill="#17594D" font-family="Arial, sans-serif" font-size="11">Behavior</text>
  <text x="143" y="176" fill="#17594D" font-family="Arial, sans-serif" font-size="11">score</text>
  <text x="236" y="142" fill="#2254B5" font-family="Arial, sans-serif" font-size="13" font-weight="700">ML</text>
  <text x="232" y="184" fill="#C25A14" font-family="Arial, sans-serif" font-size="13" font-weight="700">DL</text>
  <text x="252" y="142" fill="#2254B5" font-family="Arial, sans-serif" font-size="10">Risk</text>
  <text x="252" y="184" fill="#C25A14" font-family="Arial, sans-serif" font-size="10">Trend</text>
  <defs>
    <linearGradient id="bg" x1="40" y1="18" x2="371" y2="292" gradientUnits="userSpaceOnUse">
      <stop stop-color="#163A43"/>
      <stop offset="0.58" stop-color="#285A65"/>
      <stop offset="1" stop-color="#5C8F77"/>
    </linearGradient>
    <radialGradient id="orb1" cx="0" cy="0" r="1" gradientUnits="userSpaceOnUse" gradientTransform="translate(87 82) rotate(90) scale(52)">
      <stop stop-color="#9AF3D9"/>
      <stop offset="1" stop-color="#9AF3D9" stop-opacity="0"/>
    </radialGradient>
    <radialGradient id="orb2" cx="0" cy="0" r="1" gradientUnits="userSpaceOnUse" gradientTransform="translate(337 74) rotate(90) scale(38)">
      <stop stop-color="#B0D9FF"/>
      <stop offset="1" stop-color="#B0D9FF" stop-opacity="0"/>
    </radialGradient>
  </defs>
</svg>
